<svg xmlns="http://www.w3.org/2000/svg" width="40" height="48" viewBox="0 0 40 48"><path fill="#000" opacity=".15" d="M21 3C11 3 3 11 3 21c0 13 18 27 18 27s18-14 18-27C39 11 31 3 21 3Z"/><path fill="#2563c2" stroke="#fff" stroke-width="2" d="M20 2C10 2 2 10 2 20c0 12 18 25 18 25s18-13 18-25C38 10 30 2 20 2Z"/><g transform="translate(4 3)" fill="none" stroke="#fff" stroke-width="1.8" stroke-linecap="round" stroke-linejoin="round"><circle cx="9" cy="8" r="3"/><circle cx="23" cy="23" r="3"/><path d="M9 11v5c0 4 14-2 14 4"/></g></svg>